{
    "asset" : {
        "generator" : "Khronos glTF Blender I/O v3.2.43",
        "version" : "2.0"
    },
    "scene" : 0,
    "scenes" : [
        {
            "name" : "Scene",
            "nodes" : [
                0
            ]
        }
    ],
    "nodes" : [
        {
            "mesh" : 0,
            "name" : "BezierCircle",
            "rotation" : [
                0,
                0.4617486000061035,
                0,
                0.8870108127593994
            ],
            "translation" : [
                0,
                0.558735191822052,
                0
            ]
        }
    ],
    "animations" : [
        {
            "channels" : [
                {
                    "sampler" : 0,
                    "target" : {
                        "node" : 0,
                        "path" : "rotation"
                    }
                }
            ],
            "name" : "BezierCircleAction",
            "samplers" : [
                {
                    "input" : 4,
                    "interpolation" : "LINEAR",
                    "output" : 5
                }
            ]
        }
    ],
    "materials" : [
        {
            "doubleSided" : true,
            "emissiveFactor" : [
                1,
                1,
                1
            ],
            "name" : "MetaLogo",
            "pbrMetallicRoughness" : {
                "baseColorFactor" : [
                    0,
                    0,
                    0,
                    1
                ]
            }
        }
    ],
    "meshes" : [
        {
            "name" : "BezierCircle",
            "primitives" : [
                {
                    "attributes" : {
                        "POSITION" : 0,
                        "NORMAL" : 1,
                        "TEXCOORD_0" : 2
                    },
                    "indices" : 3,
                    "material" : 0
                }
            ]
        }
    ],
    "accessors" : [
        {
            "bufferView" : 0,
            "componentType" : 5126,
            "count" : 18589,
            "max" : [
                1.0404913425445557,
                0.24747934937477112,
                1.0405876636505127
            ],
            "min" : [
                -1.0404912233352661,
                -1.2878245115280151,
                -1.0405876636505127
            ],
            "type" : "VEC3"
        },
        {
            "bufferView" : 1,
            "componentType" : 5126,
            "count" : 18589,
            "type" : "VEC3"
        },
        {
            "bufferView" : 2,
            "componentType" : 5126,
            "count" : 18589,
            "type" : "VEC2"
        },
        {
            "bufferView" : 3,
            "componentType" : 5123,
            "count" : 107520,
            "type" : "SCALAR"
        },
        {
            "bufferView" : 4,
            "componentType" : 5126,
            "count" : 100,
            "max" : [
                4.166666666666667
            ],
            "min" : [
                0.041666666666666664
            ],
            "type" : "SCALAR"
        },
        {
            "bufferView" : 5,
            "componentType" : 5126,
            "count" : 100,
            "type" : "VEC4"
        }
    ],
    "bufferViews" : [
        {
            "buffer" : 0,
            "byteLength" : 223068,
            "byteOffset" : 0
        },
        {
            "buffer" : 0,
            "byteLength" : 223068,
            "byteOffset" : 223068
        },
        {
            "buffer" : 0,
            "byteLength" : 148712,
            "byteOffset" : 446136
        },
        {
            "buffer" : 0,
            "byteLength" : 215040,
            "byteOffset" : 594848
        },
        {
            "buffer" : 0,
            "byteLength" : 400,
            "byteOffset" : 809888
        },
        {
            "buffer" : 0,
            "byteLength" : 1600,
            "byteOffset" : 810288
        }
    ],
    "buffers" : [
        {
            "byteLength" : 811888,
            "uri" : "data:application/octet-stream;base64,"
        }
    ]
}
