{
    "asset" : {
        "generator" : "Khronos glTF Blender I/O v1.6.16",
        "version" : "2.0"
    },
    "scene" : 0,
    "scenes" : [
        {
            "name" : "Scene",
            "nodes" : [
                7
            ]
        }
    ],
    "nodes" : [
        {
            "mesh" : 0,
            "name" : "Mesh_0"
        },
        {
            "children" : [
                0
            ],
            "name" : "Project2D_2",
            "scale" : [
                2.4449877738952637,
                2.4449877738952637,
                2.4449877738952637
            ]
        },
        {
            "children" : [
                1
            ],
            "name" : "Project2D Root_1"
        },
        {
            "children" : [
                2
            ],
            "name" : "Root_0"
        },
        {
            "children" : [
                3
            ],
            "name" : "GLTF_SceneRootNode",
            "rotation" : [
                0.7071068286895752,
                0,
                0,
                0.7071068286895752
            ]
        },
        {
            "children" : [
                4
            ],
            "name" : "root"
        },
        {
            "children" : [
                5
            ],
            "name" : "RootNode (model correction matrix)"
        },
        {
            "children" : [
                6
            ],
            "name" : "RootNode (gltf orientation matrix)",
            "rotation" : [
                -0.7071068286895752,
                0,
                0,
                0.7071068286895752
            ]
        }
    ],
    "materials" : [
        {
            "doubleSided" : true,
            "name" : "material",
            "pbrMetallicRoughness" : {
                "metallicFactor" : 0
            }
        }
    ],
    "meshes" : [
        {
            "name" : "Mesh_0",
            "primitives" : [
                {
                    "attributes" : {
                        "POSITION" : 0,
                        "NORMAL" : 1,
                        "TEXCOORD_0" : 2
                    },
                    "indices" : 3,
                    "material" : 0
                }
            ]
        }
    ],
    "accessors" : [
        {
            "bufferView" : 0,
            "componentType" : 5126,
            "count" : 9595,
            "max" : [
                0.3419903814792633,
                0.20799683034420013,
                0.02500000223517418
            ],
            "min" : [
                -0.34099486470222473,
                -0.2089938074350357,
                -0.02500000223517418
            ],
            "type" : "VEC3"
        },
        {
            "bufferView" : 1,
            "componentType" : 5126,
            "count" : 9595,
            "type" : "VEC3"
        },
        {
            "bufferView" : 2,
            "componentType" : 5126,
            "count" : 9595,
            "type" : "VEC2"
        },
        {
            "bufferView" : 3,
            "componentType" : 5123,
            "count" : 53400,
            "type" : "SCALAR"
        }
    ],
    "bufferViews" : [
        {
            "buffer" : 0,
            "byteLength" : 115140,
            "byteOffset" : 0
        },
        {
            "buffer" : 0,
            "byteLength" : 115140,
            "byteOffset" : 115140
        },
        {
            "buffer" : 0,
            "byteLength" : 76760,
            "byteOffset" : 230280
        },
        {
            "buffer" : 0,
            "byteLength" : 106800,
            "byteOffset" : 307040
        }
    ],
    "buffers" : [
        {
            "byteLength" : 413840,
            "uri" : "data:application/octet-stream;base64,"
        }
    ]
}
